<svg xmlns="http://www.w3.org/2000/svg" xmlns:xlink="http://www.w3.org/1999/xlink" preserveAspectRatio="xMidYMid" width="724" height="561" viewBox="0 0 724 561">
  <defs>
    <linearGradient id="gradientFill-1" x1="0" x2="1" y1="0" y2="1" gradientUnits="objectBoundingBox" spreadMethod="pad">
      <stop offset="0" stop-color="rgb(203,206,208)" stop-opacity="1"/>
      <stop offset="1" stop-color="rgb(132,131,139)" stop-opacity="1"/>
    </linearGradient>
    <linearGradient id="gradientFill-2" x1="0" x2="1" y1="0" y2="1" gradientUnits="objectBoundingBox" spreadMethod="pad">
      <stop offset="0" stop-color="rgb(39,109,195)" stop-opacity="1"/>
      <stop offset="1" stop-color="rgb(22,92,170)" stop-opacity="1"/>
    </linearGradient>
  </defs>
  <path d="M361.453,485.937 C162.329,485.937 0.906,377.828 0.906,244.469 C0.906,111.109 162.329,3.000 361.453,3.000 C560.578,3.000 722.000,111.109 722.000,244.469 C722.000,377.828 560.578,485.937 361.453,485.937 ZM416.641,97.406 C265.289,97.406 142.594,171.314 142.594,262.484 C142.594,353.654 265.289,427.562 416.641,427.562 C567.992,427.562 679.687,377.033 679.687,262.484 C679.687,147.971 567.992,97.406 416.641,97.406 Z" fill="url(#gradientFill-1)" fill-rule="evenodd"/>
  <text
     style="font-size:645px;font-style:italic;font-weight:bold;fill:url(#gradientFill-2);font-family:Times New Roman"
     x="301.61221"
     y="446.77448"
     transform="scale(1.0414082,0.96023824)">ρ</text>
</svg>
